<svg xmlns="http://www.w3.org/2000/svg" width="71.225" height="71.219" viewBox="0 0 71.225 71.219">
  <g id="Grupo_14639" data-name="Grupo 14639" transform="translate(0)">
    <path id="Trazado_10993" data-name="Trazado 10993" d="M92.59,15.714c.3-1.017.532-2.056.91-3.041A15.388,15.388,0,0,1,99.23,5.4c.189-.132.375-.27.614-.442a9.925,9.925,0,0,1-1.208-8.27,9.442,9.442,0,0,1,3.526-5.049,9.767,9.767,0,0,1,11.855.028A9.651,9.651,0,0,1,117.8-2.122a9.9,9.9,0,0,1-1.478,7.088,15.823,15.823,0,0,1,7.3,11.6,10.439,10.439,0,0,1,14.879,9.774c.831-.673,1.6-1.259,2.317-1.9.459-.405.144-.794-.146-1.149a11.028,11.028,0,0,1-2.32-4.993,10.843,10.843,0,1,1,21.514-1.554,10.421,10.421,0,0,1-2.284,6.3c-.772.988-.757,1.109.239,1.878a14.52,14.52,0,0,1,4.956,17.1c-2.07,5.345-6.113,8.425-11.779,9.349-.158.025-.318.045-.577.084V52.2c0,2.394.008,4.784-.006,7.178,0,1.1-.436,1.5-1.526,1.484-.814-.014-1.245-.5-1.25-1.49-.014-1.929-.006-3.855-.006-5.784V51.7a40.543,40.543,0,0,1-5.181-1.822,39.2,39.2,0,0,1-4.449-3.007,11.051,11.051,0,0,1-8.493,6.029c0,2.081,0,4.123,0,6.161a3.877,3.877,0,0,1-.056.831c-.158.7-.555.971-1.371.969a1.139,1.139,0,0,1-1.3-.974,3.6,3.6,0,0,1-.056-.76c0-2.042,0-4.086,0-6.2-.36-.087-.71-.175-1.059-.256a10.676,10.676,0,0,1-7.4-5.818,2.6,2.6,0,0,0-1.225-1.2c-.932-.5-1.76-1.183-2.65-1.76a.93.93,0,0,0-.687-.169c-1.374.465-2.731.977-4.244,1.532v.608q0,6.585,0,13.167a3.85,3.85,0,0,1-.031.766c-.118.586-.4,1.031-1.084,1.062-.971.042-1.374-.166-1.566-.89a4.056,4.056,0,0,1-.1-.963q-.008-6.547,0-13.1v-.631a38.347,38.347,0,0,1-4.421-1.726,11.9,11.9,0,0,1-5.666-13.936.826.826,0,0,0-.127-.941,15.077,15.077,0,0,1-3.779-7.775.655.655,0,0,0-.1-.177ZM112.549,41.28a9.041,9.041,0,0,1,2.081-10.208,1.044,1.044,0,0,0,.245-.67,6.515,6.515,0,0,1,2.526-5.057,1.273,1.273,0,0,0,.422-.727,10.682,10.682,0,0,1,2.779-5.809,1.076,1.076,0,0,0,.3-.653,12.465,12.465,0,0,0-1.36-5.626,13.1,13.1,0,0,0-5.747-5.77,1.424,1.424,0,0,1-.456-2.492,6.771,6.771,0,0,0,1.267-7.4A6.805,6.805,0,0,0,109-7.464a7.045,7.045,0,0,0-7.747,8.783,8.765,8.765,0,0,0,1.737,3.137,1.371,1.371,0,0,1-.4,2.188c-.414.253-.859.462-1.267.727a12.622,12.622,0,0,0-5.933,9.157,12.433,12.433,0,0,0,3.478,10.667,2.419,2.419,0,0,1,.58,2.678,8.873,8.873,0,0,0,1.535,9.025,8.984,8.984,0,0,0,5.7,3.309c0-1.439.023-2.83-.017-4.218a1.471,1.471,0,0,0-.375-.9c-.974-1.031-2-2.011-2.99-3.019a1.451,1.451,0,0,1-.217-2.154c.614-.631,1.422-.56,2.2.206.422.417.825.853,1.357,1.408.02-.42.037-.639.037-.859,0-2.044.025-4.089-.017-6.13a1.748,1.748,0,0,0-.439-1.078c-1.943-2-3.931-3.951-5.891-5.93A1.406,1.406,0,1,1,102.3,17.57c1.276,1.253,2.531,2.529,3.8,3.79.155.155.321.3.589.543v-.893q0-6.441,0-12.888c0-1.033.546-1.65,1.394-1.656s1.383.605,1.388,1.642c.008,1.6,0,3.2.006,4.807,0,.169.034.335.051.5l.177.1c.3-.352.583-.724.907-1.053a17.654,17.654,0,0,1,1.566-1.481,1.283,1.283,0,0,1,1.766.149,1.327,1.327,0,0,1,.132,1.721,4.054,4.054,0,0,1-.5.58c-1.2,1.2-2.385,2.41-3.6,3.59a1.519,1.519,0,0,0-.515,1.208c.028,2.416.014,4.832.014,7.245v.85c.941-.946,1.735-1.749,2.537-2.546.445-.439.873-.9,1.357-1.3a1.341,1.341,0,0,1,1.78.082,1.325,1.325,0,0,1,.169,1.771,3.9,3.9,0,0,1-.5.577c-1.656,1.661-3.323,3.312-4.962,4.987a1.322,1.322,0,0,0-.363.831c-.025,3.644-.017,7.29-.017,10.937,0,.158.025.318.051.628Zm16.969,8.791a8.057,8.057,0,0,0,6.2-4.979,2.746,2.746,0,0,1,1.844-1.771,5.663,5.663,0,0,0,4.016-4.649,6.071,6.071,0,0,0-5.243-7.088c-1.107-.138-1.687-.634-1.639-1.439a3.3,3.3,0,0,1,.352-1.112,7.387,7.387,0,0,0,.524-4.491,7.562,7.562,0,0,0-14.989.98,2.029,2.029,0,0,1-1.084,1.8,3.424,3.424,0,0,0-1.794,3.5,2.239,2.239,0,0,1-.946,2.146,5.739,5.739,0,0,0-2.008,6,5.7,5.7,0,0,0,4.1,4.415,2.2,2.2,0,0,1,1.594,1.481,6.694,6.694,0,0,0,.7,1.436,8.009,8.009,0,0,0,5.525,3.745,1.167,1.167,0,0,0,.065-.242c0-2.137.017-4.275-.008-6.409a1.167,1.167,0,0,0-.366-.69c-1.512-1.54-3.047-3.061-4.57-4.593a4.392,4.392,0,0,1-.5-.574,1.357,1.357,0,0,1,1.92-1.881,6.263,6.263,0,0,1,.769.7c.87.884,1.729,1.774,2.593,2.664l.166-.1V26.057c0-.115,0-.231,0-.346.008-1.073.535-1.737,1.38-1.749s1.4.662,1.405,1.723c.006,2.32,0,4.643,0,6.964,0,.194.025.386.039.577l.166.09c.237-.284.465-.577.718-.848a6.894,6.894,0,0,1,.805-.766,1.335,1.335,0,0,1,2.23.89,2.117,2.117,0,0,1-.58,1.329c-.952,1.048-2,2-2.974,3.033a1.569,1.569,0,0,0-.391.957c-.028,2.948-.017,5.9-.017,8.845Zm20.911-10.3c.3-.284.484-.451.662-.625.774-.766,1.532-1.554,2.329-2.3a1.3,1.3,0,0,1,1.67-.175,1.232,1.232,0,0,1,.6,1.492,2.537,2.537,0,0,1-.645.963c-1.4,1.428-2.819,2.83-4.224,4.249-.155.158-.366.363-.369.552-.031,1.549-.017,3.1-.017,4.652a3.876,3.876,0,0,0,.487,0A11.962,11.962,0,0,0,160.98,37.453a11.8,11.8,0,0,0-4.917-10.368c-2.149-1.633-2.4-3.537-.76-5.629a8.055,8.055,0,1,0-14.085-3.165,10.176,10.176,0,0,0,1.889,3.6,3.324,3.324,0,0,1,.611,2.954,3.991,3.991,0,0,1-1.743,2.264,10.086,10.086,0,0,0-2.492,2.495A8.954,8.954,0,0,1,140.5,45.042c1.63,1.889,5.1,3.6,7.107,3.509a2.059,2.059,0,0,0,.034-.265q0-7.21-.011-14.42a1.155,1.155,0,0,0-.324-.71c-.783-.825-1.616-1.6-2.4-2.427a1.372,1.372,0,0,1-.034-2.047,1.388,1.388,0,0,1,2,.09c.231.206.448.428.774.741v-.924q0-6.931,0-13.863a3.807,3.807,0,0,1,.087-.9,1.353,1.353,0,0,1,1.323-1.031,1.391,1.391,0,0,1,1.329,1.124,5.046,5.046,0,0,1,.042.9c.006.819,0,1.642,0,2.65.515-.521.881-.9,1.262-1.273a1.445,1.445,0,0,1,2.157-.175,1.465,1.465,0,0,1-.2,2.157c-.9.912-1.788,1.825-2.715,2.706a1.49,1.49,0,0,0-.515,1.208c.031,2.16.014,4.32.014,6.477Z" transform="translate(-92.59 10.347)" fill="#36c"/>
  </g>
</svg>
