<svg xmlns="http://www.w3.org/2000/svg" width="74.818" height="71.219" viewBox="0 0 74.818 71.219">
  <g id="Grupo_14642" data-name="Grupo 14642" transform="translate(0)">
    <path id="Trazado_10996" data-name="Trazado 10996" d="M197.144,66.081V63.605h7.414c.018-.309.039-.535.039-.76,0-4.291-.011-8.581.014-12.872a1.157,1.157,0,0,0-.619-1.118c-1.723-1.111-3.425-2.261-5.131-3.408a2.548,2.548,0,0,1-.971-3.693c.411-.841.819-1.681,1.256-2.508a2.491,2.491,0,0,1,3.439-1.154c.63.3,1.252.615,2.012.988V36.7c0-.988-.007-1.976,0-2.965a3.731,3.731,0,0,1,3.837-3.851c2.806-.014,5.616-.007,8.426,0a3.744,3.744,0,0,1,3.96,3.964q.011,12.444,0,24.885v1.023a6.922,6.922,0,0,1,4.99-1.136v-.883q0-16.348.018-32.689a1.23,1.23,0,0,0-.651-1.182c-1.727-1.111-3.429-2.261-5.131-3.408a2.526,2.526,0,0,1-.957-3.633c.422-.862.837-1.73,1.287-2.578a2.486,2.486,0,0,1,3.383-1.139c.654.3,1.294.633,2.05,1.009V13.18q0-7.064,0-14.124a3.77,3.77,0,0,1,4.108-4.129q4.057-.005,8.113,0a3.743,3.743,0,0,1,4,4q.011,14.043,0,28.086v1.02c1.087-.436,2.089-.841,3.1-1.241a2.563,2.563,0,0,1,3.679,1.379c.4.784.8,1.576,1.185,2.367a2.531,2.531,0,0,1-1.115,3.643c-2.089,1.21-4.2,2.388-6.281,3.612a1.148,1.148,0,0,0-.542.791c-.028,7.41-.021,14.824-.018,22.234a2.131,2.131,0,0,0,.053.3c2.363-.4,4.248.784,6.211,2.272v-20.5c0-2.8,1.484-4.273,4.291-4.273,2.655,0,5.307-.007,7.959,0a3.724,3.724,0,0,1,3.978,3.939c.011,1.291,0,2.585,0,4.034.689-.345,1.259-.637,1.832-.918a2.533,2.533,0,0,1,3.714,1.213c.429.833.851,1.667,1.256,2.511a2.488,2.488,0,0,1-.939,3.457q-2.611,1.778-5.254,3.5a1.153,1.153,0,0,0-.626,1.118c.035,2,.014,4,.014,6.084h7.421v2.522h-.8c-7.072,0-14.145-.011-21.221.007a5.705,5.705,0,0,1-3.721-1.15,6.366,6.366,0,0,0-4.565-1.379c-2.128.106-4.262.018-6.394.028a5.5,5.5,0,0,1-3.971-1.523,3.425,3.425,0,0,0-2.539-.985c-1.456.028-2.912.014-4.368.007a2.858,2.858,0,0,0-2.662,1.336c-1.709,2.866-4.185,3.823-7.48,3.71C208.577,65.944,202.9,66.081,197.144,66.081Zm25.494-50.745c-.387.763-.717,1.495-1.118,2.187-.288.5-.26.774.267,1.108,1.667,1.059,3.271,2.216,4.945,3.26a3.174,3.174,0,0,1,1.6,2.972q-.042,16.38-.018,32.76V58.6a6.264,6.264,0,0,1,5,1.889,2.245,2.245,0,0,0,1.343.549c1.6.067,3.207.025,4.888.025V60.1q0-10.846-.007-21.685a2.778,2.778,0,0,1,1.551-2.659c2.019-1.122,4.016-2.286,6.024-3.432.243-.141.478-.3.76-.471l-1.445-2.88c-1.146.457-2.2.89-3.264,1.3a2.5,2.5,0,0,1-3.615-2.472c-.011-2.754,0-5.511,0-8.268v-.914h-3.682V16.114h3.682V4.838c0-2,.007-4,0-6.007-.007-.858-.45-1.389-1.238-1.4-2.912-.025-5.824-.018-8.736,0a1.09,1.09,0,0,0-1.206,1c-.07,1.727-.025,3.461-.025,5.275h4.92V6.185h-4.948c0,2.655.014,5.226,0,7.8a2.484,2.484,0,0,1-3.686,2.332C223.971,16.012,223.331,15.677,222.638,15.336ZM199.975,43.183c1.867,1.248,3.654,2.5,5.5,3.654a3.069,3.069,0,0,1,1.632,3.028c-.056.816-.011,1.639-.011,2.511h3.693v2.508h-3.65v8.7H212c1.4,0,2.806.021,4.21-.007,1.551-.032,2.124-.63,2.124-2.145V39.849h-6.183V37.341h6.183c0-1.168,0-2.279,0-3.39,0-1.129-.433-1.572-1.544-1.572q-4.057-.011-8.11,0c-1.157,0-1.576.433-1.579,1.618,0,1.611.007,3.221,0,4.836a2.515,2.515,0,0,1-3.865,2.37c-.6-.292-1.192-.587-1.822-.9Zm57.068,15.39h4.966a4.464,4.464,0,0,0,.028-.689,3.59,3.59,0,0,1,2.043-3.833c1.744-1.016,3.38-2.223,5.106-3.376l-1.445-2.884c-.658.331-1.234.622-1.818.907a2.526,2.526,0,0,1-3.872-2.377c-.014-1.3.014-2.6-.011-3.9a1.178,1.178,0,0,0-1.252-1.294c-2.884-.021-5.771-.014-8.655,0a1.153,1.153,0,0,0-1.277,1.108c-.07,1.263-.021,2.532-.021,3.9h3.651v2.486h-3.615V63.539h11.1v-2.49h-4.931Z" transform="translate(-197.144 5.076)" fill="#36c"/>
  </g>
</svg>
